<?xml version="1.0" standalone="no"?>
<!DOCTYPE svg PUBLIC "-//W3C//DTD SVG 20010904//EN"
 "http://www.w3.org/TR/2001/REC-SVG-20010904/DTD/svg10.dtd">
<svg version="1.0" xmlns="http://www.w3.org/2000/svg"
 width="1080.000000pt" height="1080.000000pt" viewBox="0 0 1080.000000 1080.000000"
 preserveAspectRatio="xMidYMid meet">
<metadata>
Created by potrace 1.14, written by Peter Selinger 2001-2017
</metadata>
<g transform="translate(0.000000,1080.000000) scale(0.100000,-0.100000)"
fill="#000000" stroke="none">
<path d="M5391 9081 c-7 -5 -10 -14 -7 -20 4 -6 1 -13 -6 -16 -8 -3 -14 -15
-15 -26 -1 -12 -9 -29 -17 -38 -9 -10 -16 -22 -16 -28 0 -11 -30 -75 -39 -83
-3 -3 -8 -14 -9 -25 -2 -11 -8 -23 -14 -26 -5 -3 -10 -10 -10 -15 0 -5 -5 -20
-10 -34 -5 -14 -9 -27 -8 -29 1 -2 -2 -7 -7 -10 -4 -3 -17 -23 -27 -43 -22
-43 -41 -52 -131 -63 -22 -2 -60 -7 -85 -10 -56 -8 -100 -13 -165 -20 -62 -6
-129 -14 -134 -14 -4 -1 109 -111 254 -248 77 -73 98 -98 100 -122 1 -17 0
-31 -4 -31 -3 0 -7 -12 -8 -27 -3 -55 -8 -93 -13 -93 -5 0 -9 -29 -13 -77 0
-13 -5 -23 -10 -23 -4 0 -6 -3 -4 -7 3 -5 -3 -51 -13 -103 -11 -52 -19 -98
-19 -103 -1 -8 102 44 107 56 2 4 8 5 13 1 5 -3 9 0 9 5 0 6 7 11 15 11 8 0
15 4 15 8 0 5 6 9 13 9 6 0 31 12 55 26 23 15 42 24 42 20 0 -5 4 -3 8 2 4 6
16 15 28 22 19 10 21 9 18 -15 -2 -15 -6 -63 -9 -107 -3 -44 -7 -102 -10 -130
-4 -44 -9 -118 -20 -270 -1 -22 -6 -76 -9 -120 -10 -121 -15 -182 -22 -270 -3
-44 -8 -98 -9 -120 -2 -22 -6 -78 -9 -125 -4 -47 -8 -112 -11 -145 -2 -33 -7
-98 -10 -145 -4 -47 -8 -105 -11 -130 -2 -25 -6 -79 -9 -120 -4 -70 -8 -118
-21 -265 -3 -33 -7 -96 -9 -140 -2 -44 -5 -80 -6 -80 -1 0 -7 -70 -10 -128 -1
-26 -6 -50 -11 -53 -8 -5 -50 -11 -143 -19 -83 -8 -141 -14 -170 -19 -16 -3
-46 -8 -65 -11 -19 -3 -53 -8 -75 -11 -22 -3 -51 -6 -65 -7 -14 0 -28 -5 -31
-10 -4 -5 -21 26 -39 70 -18 43 -37 84 -44 92 -6 8 -10 15 -8 15 4 1 -12 45
-43 112 -14 30 -25 57 -25 59 0 2 -11 28 -24 57 -13 29 -36 82 -51 118 -15 36
-40 93 -56 128 -16 35 -29 65 -29 68 0 2 -9 24 -20 49 -82 185 -140 322 -140
334 0 5 -4 11 -10 13 -5 2 -11 12 -13 23 -2 11 -14 42 -25 68 -12 27 -36 81
-53 120 -17 40 -42 96 -55 125 -13 29 -24 54 -24 56 0 2 -10 25 -22 52 -12 27
-22 52 -23 56 0 3 -3 10 -7 14 -5 4 -8 16 -8 26 0 10 -4 18 -10 18 -5 0 -10 8
-10 18 0 10 -4 22 -8 28 -5 5 -16 27 -25 49 -8 22 -26 63 -38 90 -13 28 -24
55 -25 60 -1 6 -16 42 -34 80 -17 39 -37 84 -44 100 -8 17 -26 58 -41 92 l-27
61 29 30 c33 35 59 86 79 152 22 74 -2 210 -50 279 -29 41 -96 107 -96 94 0
-5 -4 -3 -8 3 -4 5 -29 21 -57 33 -56 27 -162 35 -224 19 -47 -13 -121 -49
-121 -60 0 -4 -4 -8 -10 -8 -5 0 -21 -12 -35 -26 -143 -142 -134 -386 18 -519
28 -25 57 -45 64 -45 7 0 13 -5 13 -10 0 -6 3 -9 8 -9 4 1 10 0 15 -1 4 -1 10
-3 15 -4 4 -1 18 -8 31 -15 18 -10 22 -10 16 0 -6 8 -4 10 6 3 8 -5 29 -9 46
-9 39 -1 40 -2 46 -40 3 -16 13 -59 22 -95 9 -36 18 -74 19 -86 2 -11 6 -25 9
-31 4 -6 9 -25 11 -44 3 -19 7 -43 10 -54 2 -11 12 -51 21 -90 9 -38 19 -78
21 -87 2 -10 6 -26 8 -35 2 -10 14 -58 25 -108 12 -49 33 -139 47 -200 30
-130 53 -230 60 -265 3 -14 12 -52 21 -85 8 -33 16 -67 18 -75 44 -200 37
-171 69 -300 15 -58 28 -117 30 -131 3 -14 12 -54 21 -88 9 -34 20 -81 25
-104 4 -23 11 -53 15 -67 3 -14 8 -36 11 -50 3 -14 7 -33 10 -42 3 -9 7 -25 9
-35 2 -10 12 -55 23 -100 l19 -81 -41 -11 c-23 -7 -50 -13 -61 -15 -11 -3 -33
-9 -50 -16 -16 -6 -32 -11 -35 -11 -3 0 -23 -4 -45 -10 -22 -6 -48 -13 -57
-14 -9 -2 -25 -8 -36 -14 -11 -6 -22 -8 -25 -5 -3 3 -19 -2 -36 -11 -17 -8
-31 -13 -31 -10 0 3 -16 -1 -35 -9 -19 -8 -35 -13 -35 -11 0 1 -20 -3 -44 -10
-39 -12 -45 -12 -60 6 -9 11 -16 21 -16 24 0 2 -10 15 -22 29 -13 13 -35 38
-50 55 -16 16 -28 32 -28 35 0 5 -8 16 -55 71 -11 13 -31 38 -45 55 -14 17
-37 45 -52 61 -16 16 -28 34 -28 39 0 4 -3 10 -7 12 -5 2 -28 28 -53 58 -25
30 -49 60 -55 66 -5 7 -21 26 -35 44 -14 18 -30 37 -35 44 -6 6 -30 36 -55 66
-25 30 -49 58 -55 62 -5 4 -7 8 -3 8 4 0 -5 13 -20 29 -15 15 -34 37 -42 47
-84 105 -146 182 -159 195 -9 9 -25 29 -35 43 -11 15 -27 36 -35 46 -9 10 -23
27 -31 37 -77 93 -107 130 -118 141 -7 8 -25 30 -40 50 -15 21 -29 39 -32 42
-3 3 -35 41 -70 85 -35 44 -71 87 -79 96 -9 9 -23 26 -31 38 -8 13 -26 35 -40
50 -40 43 -70 81 -70 86 0 3 -9 14 -20 25 -19 19 -19 20 13 87 27 60 31 78 31
149 -1 64 -6 92 -27 137 -14 31 -30 62 -36 69 -41 49 -71 78 -80 78 -6 0 -11
5 -11 10 0 6 -7 10 -15 10 -8 0 -15 5 -15 11 0 5 -4 7 -10 4 -5 -3 -10 -1 -10
4 0 6 -3 10 -7 9 -5 -1 -26 4 -47 10 -22 6 -43 9 -48 6 -4 -3 -13 -2 -20 2
-14 9 -68 11 -68 3 0 -3 -11 -5 -25 -4 -14 2 -25 -1 -25 -6 0 -6 -6 -9 -12 -7
-25 4 -110 -44 -149 -85 -40 -41 -85 -114 -81 -131 2 -4 -2 -14 -8 -21 -6 -7
-13 -39 -16 -71 -9 -91 33 -210 96 -274 34 -34 98 -79 104 -73 3 3 6 1 6 -6 0
-7 4 -10 9 -6 5 3 15 0 23 -7 14 -14 31 -17 116 -19 49 -2 54 -4 67 -33 14
-32 46 -87 55 -96 3 -3 12 -17 20 -32 69 -125 175 -304 182 -306 4 -2 8 -7 8
-12 0 -12 73 -134 82 -138 5 -2 6 -8 2 -13 -3 -5 0 -9 5 -9 6 0 11 -5 11 -10
0 -6 19 -41 41 -78 23 -37 51 -85 63 -107 11 -22 24 -42 27 -45 3 -3 20 -32
39 -65 19 -33 38 -63 43 -66 5 -3 7 -8 6 -10 -4 -5 61 -121 71 -129 4 -3 9 -9
11 -15 4 -9 65 -116 100 -173 53 -87 70 -119 76 -134 3 -10 9 -18 14 -18 5 0
9 -5 9 -10 0 -6 20 -43 44 -83 43 -72 66 -111 115 -197 13 -25 28 -47 31 -50
4 -3 9 -10 11 -15 4 -11 143 -249 207 -354 19 -32 85 -147 113 -197 34 -61 44
-78 60 -94 8 -9 22 -25 30 -36 45 -61 167 -128 259 -141 70 -10 4058 -10 4099
1 99 24 177 71 246 149 41 47 195 298 195 319 0 4 5 8 10 8 6 0 10 6 10 14 0
8 6 21 13 28 6 7 23 33 36 58 14 25 63 110 111 190 47 80 89 152 93 160 4 8
16 29 27 45 11 17 25 41 32 55 7 14 23 40 36 58 14 17 21 32 18 32 -4 0 11 27
34 59 22 33 40 67 40 75 0 8 4 16 8 18 7 3 109 172 310 518 30 52 62 106 71
120 9 14 21 34 27 45 6 11 28 47 48 80 20 33 41 72 48 88 7 15 16 27 20 27 4
0 8 7 8 15 0 8 5 15 10 15 6 0 10 5 10 11 0 6 29 60 65 120 36 61 65 115 65
120 0 5 3 9 8 9 4 0 14 15 22 33 7 17 18 37 22 42 16 19 78 127 78 136 0 10 3
11 50 14 81 4 175 34 218 70 70 57 130 144 139 200 20 137 -12 262 -89 335
-40 38 -72 65 -81 68 -4 1 -24 9 -44 17 -58 24 -93 28 -195 23 -16 -1 -28 -6
-28 -11 0 -4 -5 -5 -10 -2 -22 14 -129 -59 -185 -126 -84 -101 -93 -288 -18
-405 12 -18 9 -25 -24 -65 -21 -24 -42 -47 -48 -51 -5 -4 -7 -8 -3 -8 8 0 -27
-43 -59 -73 -13 -11 -23 -24 -23 -29 0 -4 -8 -16 -17 -26 -10 -10 -34 -37 -53
-61 -19 -24 -51 -62 -70 -85 -19 -24 -48 -60 -65 -81 -16 -21 -34 -43 -40 -50
-5 -6 -30 -35 -55 -65 -24 -30 -48 -56 -52 -58 -5 -2 -8 -8 -8 -14 0 -6 -10
-20 -22 -32 -13 -12 -35 -37 -49 -56 -15 -19 -35 -45 -45 -57 -11 -12 -30 -36
-44 -53 -14 -18 -42 -51 -62 -74 -21 -22 -38 -47 -38 -54 0 -7 -4 -10 -10 -7
-5 3 -10 2 -10 -4 0 -8 -129 -173 -150 -191 -3 -3 -21 -25 -40 -50 -19 -25
-57 -72 -85 -105 -27 -33 -54 -65 -60 -71 -5 -7 -20 -25 -32 -41 -12 -16 -34
-42 -48 -57 -14 -15 -25 -29 -25 -31 0 -3 -9 -15 -19 -27 -47 -55 -60 -70
-120 -146 l-65 -80 -43 13 c-24 7 -43 11 -43 8 0 -3 -6 -1 -12 4 -7 6 -35 16
-63 22 -27 7 -67 19 -87 27 -21 8 -38 11 -38 8 0 -4 -7 -1 -15 6 -8 7 -15 10
-15 7 0 -3 -15 -1 -32 4 -18 6 -41 12 -50 15 -10 2 -28 7 -40 10 -13 3 -32 7
-43 9 -11 1 -36 10 -56 18 l-37 15 19 79 c11 43 20 86 21 96 1 9 6 17 11 17 4
0 5 4 2 10 -3 5 1 35 10 67 19 71 24 90 30 128 3 17 10 44 15 60 5 17 12 46
15 65 3 19 13 62 21 95 9 33 17 67 19 75 4 20 10 45 39 170 26 109 36 155 40
180 2 8 8 33 14 55 6 22 13 51 16 65 3 14 7 34 10 45 2 11 9 43 16 70 27 123
51 221 57 235 3 8 7 24 8 35 4 38 17 100 22 107 2 5 6 16 8 25 5 25 64 284 71
308 2 11 6 31 8 45 3 14 7 32 10 40 3 8 8 26 10 40 3 14 10 45 17 70 6 25 13
56 15 70 7 32 6 31 53 35 48 4 107 22 139 43 12 8 22 10 22 6 0 -5 5 -1 11 9
5 9 17 17 24 17 8 0 15 3 15 8 0 4 16 24 36 45 19 20 32 37 27 37 -4 0 -3 4 3
8 25 16 52 121 49 189 -3 83 -11 117 -42 166 -13 20 -21 37 -19 37 5 0 -49 54
-81 80 -24 21 -92 52 -123 58 -49 8 -161 8 -166 0 -3 -5 -9 -6 -14 -3 -14 9
-120 -54 -162 -96 -102 -103 -131 -265 -71 -396 20 -42 22 -46 58 -85 l24 -28
-24 -59 c-14 -33 -39 -90 -56 -128 -17 -37 -32 -72 -33 -78 -2 -5 -15 -36 -29
-69 -15 -32 -27 -60 -27 -61 0 -1 -10 -24 -22 -51 -12 -27 -23 -51 -23 -54 -1
-3 -13 -31 -28 -64 -15 -32 -27 -60 -27 -62 0 -2 -9 -23 -19 -47 -11 -23 -41
-91 -66 -152 -26 -60 -53 -123 -60 -140 -7 -16 -23 -52 -34 -80 -12 -27 -29
-63 -38 -80 -10 -16 -17 -32 -16 -35 1 -6 -13 -44 -32 -85 -52 -115 -73 -165
-68 -165 3 0 1 -6 -4 -12 -6 -7 -36 -74 -68 -148 -31 -74 -63 -148 -71 -165
-7 -16 -22 -50 -33 -75 -11 -25 -33 -75 -50 -113 -16 -37 -31 -71 -32 -75 -2
-10 -11 -32 -61 -148 -42 -97 -45 -100 -73 -98 -36 3 -121 13 -155 20 -59 10
-108 16 -147 18 -24 0 -43 3 -43 6 0 3 -15 6 -32 6 -60 2 -153 15 -160 22 -4
4 -9 42 -11 85 -2 42 -6 80 -10 83 -3 3 -2 17 3 30 5 13 6 24 2 24 -4 0 -9 28
-10 63 -2 34 -5 78 -7 97 -8 66 -18 225 -19 292 -1 38 -4 68 -7 68 -3 0 -6 12
-6 28 0 30 -8 138 -28 392 -4 47 -8 103 -10 125 -2 22 -6 83 -9 135 -3 52 -6
95 -7 95 -1 0 -3 25 -4 55 -2 30 -6 82 -9 115 -4 33 -9 96 -12 140 -3 44 -7
98 -9 120 -2 22 -6 78 -9 125 -14 195 -17 223 -22 231 -3 5 1 9 8 9 8 0 9 3 3
8 -5 4 -11 15 -13 25 -4 21 21 23 41 2 8 -8 17 -11 21 -8 3 4 6 1 6 -6 0 -7 4
-10 9 -6 5 3 16 -2 24 -10 9 -8 20 -15 26 -15 6 0 11 -5 11 -12 0 -6 3 -8 7
-5 3 4 15 0 25 -10 10 -9 18 -13 18 -8 0 4 7 2 15 -5 23 -19 125 -70 125 -62
0 4 -5 27 -11 51 -5 24 -11 55 -14 70 -4 30 -11 66 -26 136 -6 28 -13 64 -15
80 -3 17 -7 41 -10 55 -3 14 -6 40 -8 59 -4 38 -5 36 256 285 56 54 97 96 91
92 -7 -4 -13 -3 -13 1 0 5 -19 10 -42 11 -60 4 -113 10 -113 12 0 2 -16 4
-115 14 -169 17 -205 28 -222 67 -7 16 -16 29 -20 29 -5 0 -8 5 -8 10 0 6 -6
25 -13 43 -8 18 -13 35 -13 38 1 4 -7 15 -16 25 -9 11 -17 22 -17 27 0 4 -20
49 -44 100 -24 50 -48 102 -53 114 -6 16 -13 20 -23 14z"/>
<path d="M5340 3186 c-53 -23 -88 -69 -97 -127 -5 -34 14 -109 28 -109 6 0 8
-4 5 -8 -6 -10 60 -55 84 -57 11 -1 22 -4 25 -7 5 -5 42 5 105 28 30 10 63 77
66 129 2 51 -11 81 -50 121 -36 37 -118 51 -166 30z m74 -134 c2 -4 1 -14 -4
-21 -10 -17 -31 -5 -23 14 6 16 19 20 27 7z"/>
<path d="M1389 3126 c-1 0 -2 -40 -3 -88 l-2 -88 1652 0 1652 0 -2 88 -1 87
-1647 1 c-907 1 -1649 1 -1649 0z"/>
<path d="M6117 3123 c-3 -7 -2 -139 2 -168 1 -7 556 -9 1650 -7 l1650 2 -3 58
c-2 31 1 63 7 70 6 8 6 12 -2 12 -6 0 -10 3 -10 8 1 4 1 12 0 18 -1 13 -3287
20 -3294 7z"/>
<path d="M3737 1909 c-66 -15 -146 -59 -201 -110 -59 -54 -120 -163 -131 -234
-23 -150 30 -303 139 -401 47 -43 157 -102 193 -104 10 0 46 -3 81 -6 67 -6
201 17 225 39 7 7 19 13 27 15 8 2 27 15 41 28 l27 25 -2 161 -1 161 -26 19
c-23 17 -43 20 -150 20 -121 0 -124 0 -146 -27 -13 -14 -23 -34 -23 -43 1 -60
36 -82 131 -82 l55 0 -1 -70 c0 -40 -5 -74 -12 -81 -14 -14 -178 -18 -208 -5
-11 5 -26 10 -33 12 -14 3 -24 10 -78 63 -38 38 -74 106 -77 148 -1 18 -6 33
-10 33 -5 0 -5 5 -1 12 4 6 8 26 10 42 2 34 26 97 46 122 90 111 195 146 323
108 82 -24 101 -24 124 0 41 44 29 97 -29 126 -65 34 -210 48 -293 29z"/>
<path d="M5756 1908 c-54 -12 -144 -65 -187 -111 -102 -108 -142 -274 -104
-430 7 -32 19 -65 25 -73 7 -7 9 -14 6 -14 -12 0 55 -91 92 -126 77 -73 200
-112 317 -101 151 14 289 126 341 278 20 57 26 210 11 279 -10 41 -59 135 -91
172 -97 110 -255 159 -410 126z m194 -159 c193 -87 213 -380 34 -509 -39 -27
-57 -33 -107 -35 -74 -3 -110 8 -164 52 -64 51 -97 128 -97 229 0 68 4 90 28
137 61 125 191 178 306 126z"/>
<path d="M6660 1905 c-188 -53 -304 -225 -295 -438 1 -39 9 -94 17 -122 18
-59 57 -135 68 -135 5 0 11 -8 15 -17 6 -20 77 -76 130 -103 58 -30 131 -43
203 -37 87 8 88 8 152 40 102 50 190 155 207 247 2 13 7 27 11 30 4 3 7 14 6
25 0 11 3 30 8 43 5 14 4 22 -3 22 -8 0 -8 4 0 13 6 8 9 16 7 18 -2 2 -6 27
-9 56 -3 29 -8 57 -12 63 -3 6 -8 21 -11 35 -5 27 -42 96 -59 107 -5 4 -6 8
-2 8 22 0 -96 95 -150 121 -79 38 -198 48 -283 24z m196 -154 c56 -25 91 -57
122 -111 27 -45 30 -54 34 -102 1 -16 6 -28 11 -28 4 0 6 -4 3 -9 -4 -5 -8
-31 -11 -58 -7 -72 -52 -151 -110 -195 -27 -20 -51 -37 -54 -36 -3 0 -8 -1
-11 -2 -3 -2 -25 -4 -50 -6 -61 -4 -116 12 -157 44 -38 30 -83 94 -83 117 0 8
-4 15 -8 15 -9 0 -16 61 -14 128 4 181 179 311 328 243z"/>
<path d="M1485 1898 c-35 -21 -42 -33 -41 -71 1 -20 -3 -37 -7 -37 -5 0 -5 -6
-1 -12 11 -18 12 -48 2 -48 -5 0 -6 -6 -1 -12 10 -17 10 -39 1 -59 -3 -8 -3
-21 2 -29 5 -8 4 -22 -1 -32 -5 -10 -6 -18 -2 -18 4 0 8 -22 8 -50 0 -27 -4
-50 -8 -50 -5 0 -5 -5 -1 -12 11 -17 11 -58 1 -58 -4 0 -5 -5 -1 -12 4 -7 7
-30 6 -52 -2 -23 -2 -47 -2 -53 0 -7 0 -20 0 -28 0 -8 0 -22 0 -30 0 -8 0 -22
0 -30 0 -8 0 -21 0 -27 -2 -77 31 -120 87 -113 46 6 65 28 68 80 2 24 6 48 9
54 4 6 4 11 -1 11 -4 0 -7 24 -7 53 3 76 3 77 14 77 5 0 28 20 51 45 l42 45
19 -22 c11 -13 28 -33 39 -46 10 -12 19 -25 19 -29 0 -3 7 -13 15 -22 47 -52
55 -62 55 -70 0 -5 7 -15 16 -22 9 -8 27 -30 39 -49 13 -20 39 -52 58 -72 29
-30 41 -36 68 -33 35 5 65 27 75 57 6 20 -32 108 -47 108 -5 0 -9 6 -9 14 0 8
-3 16 -7 18 -5 2 -42 48 -83 103 -41 55 -78 102 -83 103 -4 2 -5 8 -1 13 3 5
1 9 -4 9 -5 0 -18 12 -27 27 l-18 27 136 131 c102 98 137 138 140 160 5 40
-27 75 -70 75 -28 0 -46 -13 -115 -80 -45 -44 -86 -80 -90 -80 -4 0 -8 -6 -8
-14 0 -8 -4 -16 -10 -18 -5 -1 -54 -48 -110 -102 -55 -54 -101 -95 -101 -90
-7 50 -3 144 6 144 7 0 7 3 0 8 -6 4 -11 30 -11 57 0 28 5 53 11 57 7 5 6 8
-1 8 -7 0 -10 13 -9 29 5 56 -62 98 -110 69z"/>
<path d="M2259 1892 c-12 -11 -24 -27 -26 -38 -2 -10 -4 -182 -4 -382 -1 -284
2 -366 12 -378 37 -44 117 -36 135 14 6 16 9 169 9 391 l-1 364 -28 23 c-33
29 -66 30 -97 6z"/>
<path d="M2583 1886 l-28 -24 0 -358 c-1 -341 3 -406 24 -427 15 -15 74 -15
89 -1 24 25 28 66 27 311 -1 133 2 240 6 238 3 -3 26 -30 50 -62 24 -31 91
-116 147 -188 57 -71 116 -145 130 -164 85 -108 114 -139 134 -144 42 -11 78
4 95 38 7 16 11 668 4 756 -2 24 -49 52 -74 45 -53 -14 -52 -7 -57 -297 l-5
-271 -145 183 c-79 101 -147 186 -150 189 -3 3 -34 44 -70 92 -85 114 -122
131 -177 84z"/>
<path d="M4658 1903 c-19 -5 -53 -52 -44 -60 3 -4 1 -12 -5 -20 -6 -7 -8 -13
-3 -13 10 0 9 -198 0 -207 -3 -3 0 -15 6 -26 7 -14 7 -22 1 -24 -6 -2 -7 -19
-3 -43 4 -24 3 -43 -3 -49 -6 -6 -7 -11 -2 -11 11 0 11 -92 1 -109 -4 -6 -4
-11 1 -11 4 0 7 -41 5 -92 -5 -121 2 -152 34 -167 40 -18 91 2 98 37 3 15 5
134 4 265 0 131 2 240 5 243 4 4 227 -269 236 -290 2 -4 11 -16 20 -26 9 -9
23 -26 31 -36 8 -11 40 -51 70 -89 81 -103 85 -107 125 -110 26 -3 42 2 56 16
16 16 24 41 17 52 -1 1 4 12 11 25 6 12 8 22 4 22 -9 0 -9 77 0 86 3 3 3 16
-1 28 -4 11 -6 55 -5 96 2 41 3 80 4 85 0 6 -2 22 -4 38 -2 15 -1 30 4 33 5 2
4 16 -1 30 -13 33 -12 37 2 28 7 -5 8 -3 3 6 -11 18 -13 79 -3 108 4 12 4 22
0 22 -9 0 -8 72 1 87 4 7 3 14 -3 18 -5 3 -10 14 -10 24 0 17 -37 41 -65 41
-8 0 -25 -10 -39 -23 l-24 -23 0 -258 c0 -141 -2 -259 -4 -261 -2 -3 -24 22
-48 55 -25 33 -48 60 -52 60 -5 0 -8 7 -8 15 0 8 -3 15 -7 15 -5 0 -19 17 -33
37 -14 20 -34 47 -45 58 -11 12 -30 35 -42 51 -12 16 -30 39 -40 51 -47 55
-53 64 -53 73 0 5 -10 16 -22 24 -12 9 -19 16 -15 16 5 0 -3 11 -17 24 -15 13
-26 26 -26 30 0 4 -9 16 -19 27 -19 21 -62 31 -93 22z"/>
<path d="M7348 1898 c-10 -7 -21 -24 -26 -38 -5 -14 -9 -188 -8 -387 l1 -362
23 -23 c22 -22 28 -23 225 -23 221 0 247 6 333 71 73 56 135 183 138 282 0 12
4 22 9 22 4 0 6 4 2 9 -3 5 -7 38 -9 73 -2 35 -7 79 -11 98 -10 45 -74 170
-88 170 -6 0 -7 3 -4 6 8 8 -54 53 -114 85 -41 22 -58 24 -249 26 -155 3 -210
0 -222 -9z m369 -142 c150 -26 213 -304 106 -467 -42 -64 -86 -80 -228 -83
l-124 -2 -1 276 c0 152 2 278 4 281 8 7 194 3 243 -5z"/>
<path d="M8207 1895 c-32 -24 -35 -51 -33 -421 1 -352 2 -371 20 -390 18 -17
37 -19 235 -21 238 -1 280 6 282 49 5 90 -8 96 -210 95 l-166 0 -5 334 c-3
184 -7 335 -8 336 -1 1 -15 9 -31 17 -31 17 -62 17 -84 1z"/>
<path d="M8882 1898 c-12 -6 -25 -23 -29 -37 -4 -14 -7 -186 -7 -383 0 -393 1
-402 58 -412 17 -3 127 -4 244 -3 213 2 214 2 233 26 23 29 22 68 -4 96 -16
18 -32 20 -190 21 -95 1 -175 3 -178 3 -9 1 -18 51 -10 51 6 0 6 65 1 80 -1 3
-1 10 0 15 1 6 2 22 2 38 -1 25 2 27 41 28 277 3 267 2 286 28 28 37 16 95
-22 108 -12 4 -83 8 -157 9 -74 1 -138 2 -141 3 -9 1 -19 41 -10 41 8 0 5 105
-4 120 -3 5 -1 10 5 10 6 0 8 5 5 10 -8 13 -17 12 176 14 133 1 170 5 190 18
31 20 36 67 10 99 -19 24 -21 24 -248 26 -152 2 -236 -2 -251 -9z"/>
</g>
</svg>
